D:\school\WTK\thesis\model\3dpredictsim\Results\batch_windlass\Pog_s1_tmt_bCst_d00_k500_WL10_ig24_act_TTC_GRF.mot
nRows=25
nColumns=19

name D:\school\WTK\thesis\model\3dpredictsim\Results\batch_windlass\Pog_s1_tmt_bCst_d00_k500_WL10_ig24_act_TTC_GRF.mot
datacolumns 19
datarows 25
range 0.5697697528 0.8432592341
endheader
time 	ground_force_vx	ground_force_vy	ground_force_vz	ground_force_px	ground_force_py	ground_force_pz	1_ground_force_vx	1_ground_force_vy	1_ground_force_vz	1_ground_force_px	1_ground_force_py	1_ground_force_pz	ground_torque_x	ground_torque_y	ground_torque_z	1_ground_torque_x	1_ground_torque_y	1_ground_torque_z
        0.5697697528	       78.1301791346	      357.6895007182	       -0.1423311354	        0.3469003824	        0.0000000000	        0.0320126147	      -41.1750168090	       33.7989565126	       -6.7637476037	        0.8747403930	        0.0000000000	       -0.0728267352	        0.0000000000	        0.0000000000	        0.0000000000	        0.0000000000	        0.0000000000	        0.0000000000	
        0.5811651478	       50.4583258452	      256.4856048458	       10.7154186764	        0.3579626549	        0.0000000000	        0.0267765603	     -133.2370935642	      131.1825857115	      -28.0924292324	        0.8856325996	        0.0000000000	       -0.0717931192	        0.0000000000	        0.0000000000	        0.0000000000	        0.0000000000	        0.0000000000	        0.0000000000	
        0.5925605429	       35.6925550459	      211.4030623301	       18.2860344921	        0.3628060358	        0.0000000000	        0.0243522734	      -70.4065695265	      381.2514202115	       -2.2569737842	        0.8966722423	        0.0000000000	       -0.0693878185	        0.0000000000	        0.0000000000	        0.0000000000	        0.0000000000	        0.0000000000	        0.0000000000	
        0.6039559379	       30.4442809536	      174.6673564315	       25.7672717843	        0.3628372584	        0.0000000000	        0.0248337059	     -126.2460580808	      725.3195780071	       15.3630031390	        0.9084609921	        0.0000000000	       -0.0663764938	        0.0000000000	        0.0000000000	        0.0000000000	        0.0000000000	        0.0000000000	        0.0000000000	
        0.6153513330	       22.2604785132	      127.9904357725	       24.3315824448	        0.3629371131	        0.0000000000	        0.0248460586	     -147.6607069866	      908.8213314798	       21.2088014214	        0.9132120232	        0.0000000000	       -0.0646573883	        0.0000000000	        0.0000000000	        0.0000000000	        0.0000000000	        0.0000000000	        0.0000000000	
        0.6267467280	        3.8786062242	       72.8041566611	       17.9420059410	        0.3620107602	        0.0000000000	        0.0248162064	     -148.9413688508	      918.7316862811	       22.6763250774	        0.9161667944	        0.0000000000	       -0.0634308532	        0.0000000000	        0.0000000000	        0.0000000000	        0.0000000000	        0.0000000000	        0.0000000000	
        0.6381421231	       -4.9639787748	       10.3677999597	        2.8565435310	        0.3587310194	        0.0000000000	        0.0241501913	     -133.0159290643	      871.7878462714	       21.4012535361	        0.9186534338	        0.0000000000	       -0.0626727370	        0.0000000000	        0.0000000000	        0.0000000000	        0.0000000000	        0.0000000000	        0.0000000000	
        0.6495375181	       -0.8632695739	        0.7388579868	       -0.0232822265	        0.0000000000	        0.0000000000	        0.0000000000	     -117.5511319165	      819.0811100378	       21.6850261731	        0.9212323391	        0.0000000000	       -0.0621042560	        0.0000000000	        0.0000000000	        0.0000000000	        0.0000000000	        0.0000000000	        0.0000000000	
        0.6609329132	       -7.9032626887	        5.6963394790	       -0.5343574442	        0.0000000000	        0.0000000000	        0.0000000000	     -105.1642891338	      777.0005230211	       20.5244035153	        0.9237448788	        0.0000000000	       -0.0617170401	        0.0000000000	        0.0000000000	        0.0000000000	        0.0000000000	        0.0000000000	        0.0000000000	
        0.6723283083	       -6.6228867073	        4.1648443773	       -0.4769920783	        0.0000000000	        0.0000000000	        0.0000000000	      -92.0102541569	      750.0433811686	       20.5152724415	        0.9271817437	        0.0000000000	       -0.0612981116	        0.0000000000	        0.0000000000	        0.0000000000	        0.0000000000	        0.0000000000	        0.0000000000	
        0.6837237033	       -4.9811822233	        2.8462540157	       -0.3821522250	        0.0000000000	        0.0000000000	        0.0000000000	      -79.9412101886	      726.9969858411	       22.8794194872	        0.9322087130	        0.0000000000	       -0.0606442723	        0.0000000000	        0.0000000000	        0.0000000000	        0.0000000000	        0.0000000000	        0.0000000000	
        0.6951190984	       -3.5622934656	        1.8812298303	       -0.3010036361	        0.0000000000	        0.0000000000	        0.0000000000	      -71.0779251000	      704.0082291192	       24.6882547018	        0.9385638845	        0.0000000000	       -0.0597715156	        0.0000000000	        0.0000000000	        0.0000000000	        0.0000000000	        0.0000000000	        0.0000000000	
        0.7065144934	       -3.1581426784	        1.5663959071	       -0.2741553734	        0.0000000000	        0.0000000000	        0.0000000000	      -64.1574743209	      682.9138935163	       24.3299861783	        0.9452188303	        0.0000000000	       -0.0588366601	        0.0000000000	        0.0000000000	        0.0000000000	        0.0000000000	        0.0000000000	        0.0000000000	
        0.7179098885	       -2.5042649696	        1.1878561006	       -0.2157867544	        0.0000000000	        0.0000000000	        0.0000000000	      -58.0359413577	      664.2327948737	       23.4097707394	        0.9517910889	        0.0000000000	       -0.0578800672	        0.0000000000	        0.0000000000	        0.0000000000	        0.0000000000	        0.0000000000	        0.0000000000	
        0.7293052835	       -1.8441145410	        0.8463029778	       -0.1535840161	        0.0000000000	        0.0000000000	        0.0000000000	      -52.5188889811	      647.4960885862	       22.5475976998	        0.9582711444	        0.0000000000	       -0.0568992525	        0.0000000000	        0.0000000000	        0.0000000000	        0.0000000000	        0.0000000000	        0.0000000000	
        0.7407006786	       -1.3384442980	        0.5993298483	       -0.1053727928	        0.0000000000	        0.0000000000	        0.0000000000	      -47.3621868959	      631.7935294258	       21.6208232058	        0.9645707974	        0.0000000000	       -0.0559131159	        0.0000000000	        0.0000000000	        0.0000000000	        0.0000000000	        0.0000000000	        0.0000000000	
        0.7520960736	       -0.9990842806	        0.4387629442	       -0.0728138254	        0.0000000000	        0.0000000000	        0.0000000000	      -42.5931097198	      616.4332471160	       20.6845775093	        0.9705741070	        0.0000000000	       -0.0549451745	        0.0000000000	        0.0000000000	        0.0000000000	        0.0000000000	        0.0000000000	        0.0000000000	
        0.7634914687	       -0.7815911186	        0.3375272706	       -0.0517543681	        0.0000000000	        0.0000000000	        0.0000000000	      -38.2553703530	      601.9820112129	       19.5811155253	        0.9762342475	        0.0000000000	       -0.0540135528	        0.0000000000	        0.0000000000	        0.0000000000	        0.0000000000	        0.0000000000	        0.0000000000	
        0.7748868637	       -0.6645088786	        0.2824181722	       -0.0394882353	        0.0000000000	        0.0000000000	        0.0000000000	      -34.1207603173	      588.9957272063	       18.9201220267	        0.9815767553	        0.0000000000	       -0.0531114707	        0.0000000000	        0.0000000000	        0.0000000000	        0.0000000000	        0.0000000000	        0.0000000000	
        0.7862822588	       -0.6201746682	        0.2593867246	       -0.0328807198	        0.0000000000	        0.0000000000	        0.0000000000	      -30.2585026585	      577.4643216157	       18.6258641616	        0.9866649651	        0.0000000000	       -0.0522245963	        0.0000000000	        0.0000000000	        0.0000000000	        0.0000000000	        0.0000000000	        0.0000000000	
        0.7976776539	       -0.6308219333	        0.2596210335	       -0.0299052528	        0.0000000000	        0.0000000000	        0.0000000000	      -26.7530440266	      567.4385950201	       18.5856007279	        0.9914872147	        0.0000000000	       -0.0513557638	        0.0000000000	        0.0000000000	        0.0000000000	        0.0000000000	        0.0000000000	        0.0000000000	
        0.8090730489	       -0.6859492001	        0.2779435038	       -0.0292676099	        0.0000000000	        0.0000000000	        0.0000000000	      -23.5365091822	      558.9189723847	       18.6714030356	        0.9959956049	        0.0000000000	       -0.0505179168	        0.0000000000	        0.0000000000	        0.0000000000	        0.0000000000	        0.0000000000	        0.0000000000	
        0.8204684440	       -0.7794415534	        0.3113720228	       -0.0301791876	        0.0000000000	        0.0000000000	        0.0000000000	      -20.5732437535	      552.1634071262	       18.7993758626	        1.0000929781	        0.0000000000	       -0.0497326994	        0.0000000000	        0.0000000000	        0.0000000000	        0.0000000000	        0.0000000000	        0.0000000000	
        0.8318638390	       -0.9033064404	        0.3564942711	       -0.0318724281	        0.0000000000	        0.0000000000	        0.0000000000	      -17.6842526526	      547.7536525362	       18.8936701317	        1.0035984138	        0.0000000000	       -0.0490365079	        0.0000000000	        0.0000000000	        0.0000000000	        0.0000000000	        0.0000000000	        0.0000000000	
        0.8432592341	       -1.0457895196	        0.4086994944	       -0.0334682054	        0.0000000000	        0.0000000000	        0.0000000000	      -14.5231958456	      545.9204270683	       18.8340488726	        1.0064220533	        0.0000000000	       -0.0484509621	        0.0000000000	        0.0000000000	        0.0000000000	        0.0000000000	        0.0000000000	        0.0000000000	
